<?xml version="1.0" encoding="utf-8"?>
<!-- Generator: Adobe Illustrator 26.0.3, SVG Export Plug-In . SVG Version: 6.00 Build 0)  -->
<svg version="1.0" id="Layer_1" xmlns="http://www.w3.org/2000/svg" xmlns:xlink="http://www.w3.org/1999/xlink" x="0px" y="0px"
	 viewBox="0 0 898 630.4" style="enable-background:new 0 0 898 630.4;" xml:space="preserve">
<style type="text/css">
	.st0{fill:#3B8BEF;}
	.st1{fill:#FFFFFF;}
	.st2{fill:#FFFFFF;}
	.st3{fill:#FFFFFF;}
	.st4{fill:#FFFFFF;}
	.st5{fill:#FFFFFF;}
	.st6{fill:#FFFFFF;}
</style>
<path class="st0" d="M256.4,315.3c0,50.3-40.8,91.1-91.1,91.1c-0.1,0-0.2,0-0.4,0c-51.2-0.2-91.2-42.1-90.9-91.8
	c0.3-49.3,40.4-90.8,91.6-90.6C215.9,224.2,256.5,265.1,256.4,315.3z M137.2,317.5v37.8c0,0.5,0,1,0,1.5c0.1,0.9,0.8,1.5,1.7,1.5
	c0,0,0.1,0,0.1,0c0.5-0.1,0.9-0.3,1.3-0.5l8.8-5l57.8-33.1c0.4-0.2,0.8-0.5,1.2-0.8c0.8-0.6,0.9-1.6,0.4-2.4
	c-0.1-0.1-0.2-0.3-0.4-0.4c-0.3-0.2-0.6-0.4-0.9-0.5l-66.4-38c-0.5-0.3-0.9-0.5-1.4-0.8c-0.8-0.4-1.8-0.1-2.2,0.8
	c-0.1,0.2-0.2,0.4-0.2,0.7c0,0.5,0,1,0,1.5L137.2,317.5z"/>
<path class="st1" d="M340.5,318.4c-0.5,0.6-0.9,0.9-1.2,1.3c-4.7,5.3-9.4,10.7-14.1,16.1c-0.8,1-1.8,1.9-2.8,2.8
	c-1.1,1.1-2.8,1.1-3.9,0c0,0,0,0-0.1-0.1c-0.7-0.6-1.3-1.2-1.8-1.9c-5-5.6-9.9-11.3-14.9-17c-0.3-0.4-0.5-0.8-1.1-1
	c-0.1,0.4-0.2,0.8-0.1,1.3c0,10.3,0,20.7,0,31c0,3.1-0.6,3.7-3.6,3.7h-11.9c-0.4,0-0.8,0-1.2,0c-1.4,0-2.5-1.1-2.5-2.5
	c0-0.1,0-0.1,0-0.2c0-0.3,0-0.7,0-1v-70c-0.1-1,0-1.9,0.3-2.9c0.3-1.3,1.5-2.2,2.9-2c0.3,0.1,0.6,0.2,0.9,0.4
	c1.1,0.6,2.1,1.4,2.9,2.4c2.8,3,5.5,6,8.3,9c7.5,8.2,15.1,16.3,22.6,24.5c0.3,0.3,0.6,0.6,0.9,1c0.4,0.5,0.8,0.5,1.1,0
	c0.3-0.3,0.6-0.6,0.9-1l30.1-32.7c0.7-0.8,1.5-1.5,2.2-2.3c0.4-0.4,1-0.8,1.6-1c1.2-0.6,2.7-0.2,3.3,1c0.1,0.2,0.1,0.3,0.2,0.5
	c0.1,0.4,0.2,0.8,0.2,1.3c0,0.8,0.1,1.6,0.1,2.5v68.9c0,0.7,0,1.4-0.1,2.2c-0.1,1-0.8,1.7-1.7,1.9c-0.5,0.1-1,0.1-1.5,0.1H344
	c-0.5,0-1,0-1.5-0.1c-1-0.1-1.8-0.9-1.9-1.9c-0.1-0.6-0.1-1.2-0.1-1.7L340.5,318.4L340.5,318.4z"/>
<path class="st1" d="M406.4,300.8c0.4-0.3,0.8-0.7,1-1.2c4.1-6.4,8.2-12.8,12.3-19.2c0.4-0.6,0.7-1.1,1.1-1.7
	c0.7-0.9,1.7-1.5,2.9-1.5c0.6,0,1.3-0.1,1.9-0.1h15c0.6,0,1.2,0,1.7,0.1c0.7,0.1,1.2,0.7,1.2,1.4c0,0.2-0.1,0.3-0.1,0.4
	c-0.2,0.7-0.6,1.4-1.1,2l-22.1,32.8c-0.1,0.2-0.3,0.4-0.4,0.6c-0.6,0.6-0.5,1.1,0,1.8c3,4.3,5.9,8.7,8.8,13l14.4,21.4
	c0.4,0.5,0.7,1.1,1,1.6c0.4,0.7,0.1,1.6-0.6,2c-0.2,0.1-0.3,0.1-0.5,0.2c-0.6,0.1-1.1,0.2-1.7,0.2c-5.3,0-10.6,0-15.9,0
	c-2.2,0.1-4.2-1-5.3-2.9c-4.3-6.8-8.7-13.5-13.1-20.3c-0.2-0.4-0.5-0.7-0.8-1.2c-0.4,0.3-0.7,0.7-0.9,1.1c-4.3,6.7-8.7,13.4-13,20.2
	c-0.3,0.5-0.7,1.1-1.1,1.5c-0.6,0.8-1.4,1.2-2.3,1.3c-0.6,0.1-1.2,0.1-1.9,0.1h-15.3c-0.6,0-1.3,0-1.9-0.2c-0.7-0.1-1.2-0.9-1.1-1.6
	c0-0.1,0-0.2,0.1-0.3c0.2-0.7,0.6-1.3,1.1-1.9l22.7-33.5c0.1-0.2,0.2-0.3,0.3-0.5c0.8-1.3,0.8-0.9,0-2.1L370.3,281
	c-0.4-0.5-0.7-1.1-1-1.6c-0.4-0.7-0.2-1.6,0.5-2c0.2-0.1,0.4-0.2,0.6-0.2c0.6-0.1,1.3-0.2,1.9-0.1c5.1,0,10.3,0.1,15.4,0
	c2.5-0.2,4.8,1.1,5.9,3.3c3.9,6.3,7.8,12.6,11.8,18.9L406.4,300.8z"/>
<path class="st2" d="M803.2,321.1c0.1,0.5,0.4,1,0.7,1.4l18.6,28c0.5,0.7,1,1.6,1.3,2.4c0.3,0.9,0.1,1.4-0.8,1.6
	c-1.9,0.3-3.9,0.3-5.8,0c-0.7-0.2-1.2-0.6-1.6-1.1c-0.6-0.8-1.2-1.5-1.7-2.4c-5.6-8.5-11.3-17.1-16.8-25.7c-0.7-1.3-2.2-2.1-3.7-2
	c-5.6,0.1-11.2,0-16.7,0c-1.8,0-2,0.1-2,2v25.9c0,0.5,0,1,0,1.5c-0.1,1.4-0.5,1.9-1.8,1.9c-1.2,0.1-2.4,0.1-3.6,0
	c-1.2-0.1-1.6-0.5-1.7-1.8c0-0.5,0-1,0-1.5v-71c0-3.1,0.1-3.2,3.2-3.2c7.5,0,14.9-0.2,22.4,0.1c4.6,0.1,9.2,1.1,13.4,2.8
	c7.6,3.2,11.6,9,12.4,17.2c0.3,3.2,0.1,6.5-0.7,9.7c-1.4,5.3-5.1,9.8-10.1,12.2C806.5,320,804.9,320.6,803.2,321.1z M774.7,300.2
	v14.2c0,1.8,0.1,1.9,1.9,1.9h12.1c2.5,0,4.9-0.1,7.4-0.4c2.9-0.3,5.8-1.2,8.4-2.6c2.9-1.5,5.1-4.2,6.1-7.3c1.1-3.4,1.2-7,0.3-10.5
	c-1.2-4.7-4.4-7.6-8.8-9.3c-3.6-1.3-7.4-2-11.2-2c-4.8-0.1-9.7,0-14.5,0h-0.4c-0.5-0.1-1,0.3-1.1,0.9c0,0.1,0,0.1,0,0.2
	c0,0.4,0,0.8,0,1.2L774.7,300.2z"/>
<path class="st3" d="M612,327c-5.2,0-10.3,0-15.4,0c-1.2-0.1-2.4,0.6-2.8,1.8c-3.3,7.3-6.6,14.6-9.9,21.8c-0.4,0.8-0.8,1.6-1.2,2.3
	c-0.5,0.9-1.4,1.5-2.5,1.6c-1.2,0.1-2.4,0.1-3.6-0.1c-1.3-0.2-1.6-0.8-1.2-2.1c0.2-0.6,0.4-1.2,0.7-1.8
	c10.8-23.4,21.7-46.9,32.5-70.3c0.4-1,0.9-1.9,1.4-2.9c0.2-0.4,0.5-0.8,0.8-1.2c0.5-0.6,1.3-0.8,2-0.3c0.1,0.1,0.2,0.2,0.3,0.3
	c0.6,0.6,1,1.3,1.3,2.1c1.2,2.6,2.5,5.2,3.7,7.9c9.9,21.2,19.7,42.4,29.6,63.6c0.4,0.8,0.8,1.7,1,2.5c0.3,1.1,0,1.7-1.1,1.9
	c-1.6,0.3-3.3,0.3-4.9-0.1c-0.7-0.2-1.3-0.7-1.6-1.4c-0.4-0.8-0.8-1.5-1.2-2.3c-3.3-7.2-6.6-14.3-9.8-21.5c-0.2-0.4-0.3-0.7-0.5-1
	c-0.3-0.7-1-1.1-1.7-1.1L612,327L612,327z M612.1,289.4c-0.4,0.3-0.6,0.7-0.7,1.1c-4.2,9.2-8.4,18.4-12.7,27.6c-0.8,1.8-0.8,2,1.2,2
	H624c2,0,2.1-0.1,1.2-1.9l-9.3-20.3L612.1,289.4z"/>
<path class="st4" d="M710.8,315.7c0-11.8,0-23.7,0-35.5c0-2.8,0.2-3,2.9-3h38.1c2.8,0,2.9,0.1,2.9,3c0,0.8,0,1.6,0,2.5
	c0.1,0.8-0.5,1.5-1.4,1.6c-0.1,0-0.1,0-0.2,0c-0.5,0-1,0-1.5,0h-31.5c-0.4,0-0.8,0-1.2,0c-0.9,0.1-1.1,0.2-1.2,1.1
	c0,0.3,0,0.6,0,0.9v23.9c0,0.3,0,0.6,0,0.9c0,0.7,0.4,1.1,1.1,1.1c0.4,0,0.8,0,1.2,0h27.8c2.8,0,3,0.1,3,2.9c0,0.8,0,1.6,0,2.3
	c-0.1,1.1-0.5,1.5-1.6,1.7c-0.5,0-1.1,0-1.6,0h-27.5c-0.4,0-0.8,0-1.2,0c-0.9,0.1-1,0.2-1.1,1.2c0,0.2,0,0.4,0,0.6v24.9
	c0,0.3,0,0.6,0,0.9c0,0.5,0.4,0.8,0.8,0.8c0,0,0,0,0,0c0.4,0,0.9,0,1.3,0H752c2.7,0,3,0.3,3,3c0,0.9,0,1.7-0.1,2.6
	c-0.1,1-0.5,1.3-1.5,1.5c-0.4,0-0.9,0.1-1.3,0.1h-38.4c-2.5,0-2.9-0.3-2.9-2.8C710.8,339.7,710.8,327.7,710.8,315.7z"/>
<path class="st2" d="M459.2,315.7v-35.2c0-0.5,0-1,0-1.5c0.1-1.5,0.4-1.8,2-1.9h0.1c7.9,0,15.7-0.2,23.6,0.1c4.5,0.1,9,1.1,13.1,2.9
	c7.7,3.4,11.7,9.4,12.5,17.7c0.4,3.6,0.2,7.3-0.7,10.8c-1.9,7.1-6.4,11.9-13.1,14.9c-3.8,1.6-7.8,2.6-11.9,2.9
	c-5.4,0.5-10.9,0.2-16.3,0.3c-2.2,0-2.2,0-2.2,2.2c0,7.6,0,15.1,0,22.7c0,2.7-0.3,3-3,3c-0.8,0-1.7,0-2.5,0
	c-1.2-0.1-1.6-0.5-1.7-1.7c0-0.5,0-1.1,0-1.6L459.2,315.7z M466.4,301.8c0,5.4,0,10.8,0,16.1c0,1.4,0.2,1.6,1.4,1.6
	c5.5,0,11,0.2,16.4-0.2c3.6-0.2,7.2-1.2,10.4-2.9c4-2,6.9-5.7,7.9-10.1c0.5-2.2,0.6-4.5,0.4-6.8c-0.5-6.5-3.7-11.1-9.8-13.5
	c-3.5-1.3-7.2-2-11-2c-4.8-0.1-9.5,0-14.2,0h-0.6c-0.5,0-0.9,0.3-1,0.8c0,0,0,0,0,0.1c0,0.4,0,0.8,0,1.2L466.4,301.8z"/>
<path class="st4" d="M669,318.3l6.9-11.7c5.2-8.8,10.3-17.5,15.5-26.3c1.9-3.2,2-3.2,5.6-3.2c0.7,0,1.5,0,2.2,0
	c1.1,0.1,1.4,0.6,1.1,1.7c-0.2,0.5-0.5,1.1-0.8,1.5L678,316c-1.6,2.6-3.1,5.2-4.8,7.8c-0.5,0.8-0.7,1.7-0.7,2.6c0,8.4,0,16.8,0,25.2
	c0,2.7-0.3,3-3,3c-0.8,0-1.5,0-2.3,0c-1.4-0.1-1.8-0.5-1.9-1.9c0-0.4,0-0.9,0-1.3c0-8.1,0-16.3,0-24.5c0-0.9-0.2-1.7-0.7-2.5
	c-8.8-14.7-17.6-29.3-26.3-44c-0.3-0.5-0.6-1.1-0.9-1.7c-0.3-0.9,0-1.5,1-1.5c1.8-0.2,3.6-0.2,5.4,0c0.7,0.1,1.4,0.6,1.7,1.2
	c0.5,0.8,1,1.5,1.5,2.3l21.2,36.1C668.4,317.3,668.7,317.7,669,318.3z"/>
<path class="st5" d="M521.1,315.8c0-11.8,0-23.7,0-35.5c0-0.6,0-1.3,0.1-1.9c0.1-0.7,0.7-1.3,1.4-1.3c1.5-0.1,2.9-0.1,4.4,0
	c0.9,0.1,1.2,0.5,1.4,1.4c0,0.5,0,1.1,0,1.6v64.7c0,0.4,0,0.8,0,1.2c0.1,1.1,0.2,1.3,1.3,1.3c0.4,0,0.8,0,1.2,0h32.6
	c2.8,0,3,0.3,3,3.1c0,0.7,0,1.5,0,2.2c-0.1,1.3-0.5,1.7-1.8,1.8c-0.4,0-0.8,0-1.2,0h-39.2c-2.7,0-3-0.3-3-3
	C521.1,339.7,521.1,327.8,521.1,315.8z"/>
<path class="st6" d="M137.2,317.5v-37.9c0-0.5,0-1,0-1.5c0.1-0.9,0.9-1.6,1.8-1.5c0.2,0,0.4,0.1,0.6,0.1c0.5,0.2,1,0.5,1.4,0.8
	l66.4,38c0.3,0.2,0.6,0.3,0.9,0.5c0.8,0.6,0.9,1.6,0.4,2.4c-0.1,0.1-0.2,0.3-0.4,0.4c-0.4,0.3-0.8,0.6-1.2,0.8l-57.8,33.1l-8.8,5
	c-0.4,0.3-0.9,0.5-1.4,0.6c-0.9,0.1-1.7-0.5-1.8-1.3c0,0,0-0.1,0-0.1c0-0.5,0-1,0-1.5L137.2,317.5z"/>
</svg>
